<svg xmlns="http://www.w3.org/2000/svg" xmlns:xlink="http://www.w3.org/1999/xlink" version="1.1" x="0px" y="0px" viewBox="0 0 100 125" enable-background="new 0 0 100 100" xml:space="preserve"><g><path d="M26.55,74.417C14.822,76.762,8.567,64.253,8.567,64.253c-3.909-10.946-6.516-6.517-6.516-6.516   C1.806,58.155,6.896,80.57,11.39,81.601c1.705,0.391,3.366,0.186,5.028-0.147c0.088-0.018,0.138-0.038,0.319-0.059V92.93H9.693   v2.167H25.95V92.93h-7.225V80.945c5.599-1.314,17.214-4.184,17.214-4.184C37.502,72.854,26.55,74.417,26.55,74.417z"/><path d="M92.261,64.253c0,0-6.255,12.509-17.983,10.164c0,0-10.948-1.563-9.384,2.345c0,0,11.45,2.873,17.23,4.186V92.93h-7.045   v2.167h15.173V92.93h-5.96V81.398c0,0.018,3.503,0.593,5.207,0.202c4.494-1.03,9.523-23.445,9.276-23.863   C98.775,57.736,96.169,53.307,92.261,64.253z"/><path d="M50.58,1.625c-26.469,0-47.967,21.222-48.421,47.593H2.18C2.625,40.006,9.654,33.92,18.285,33.92   c8.629,0,15.658,6.086,16.104,15.298h0.085c0.417-8.636,6.599-14.543,14.323-15.264v25.56H26.374c-1.553,0-2.813,1.03-2.813,2.439   c0,1.406,1.26,2.438,2.813,2.438h1.923c0,0,15.715,1.626,12.885,26.552h-1.596V96h21.541v-5.058h-1.581   c-2.81-24.89,12.888-26.516,12.888-26.516l-0.084-0.036h2.413c1.555,0,2.813-1.031,2.813-2.438c0-1.409-1.258-2.439-2.813-2.439   H51.892V34.249v-0.336l0.24,0.014c7.947,0.673,14.135,6.621,14.552,15.291h0.086c0.445-9.212,7.473-15.298,16.104-15.298   c8.631,0,15.66,6.086,16.104,15.298H99C98.545,22.847,77.047,1.625,50.58,1.625z M48.814,90.942h-5.279   c0.235-4.127,0.553-21.257-9.914-26.552h15.193V90.942z M51.899,64.391h15.285c-10.512,5.235-10.226,22.35-9.989,26.552h-5.296   V64.391z"/></g></svg>